<svg xmlns="http://www.w3.org/2000/svg" width="720" height="506" aria-label="Lite avg@k by category per model, sorted by micro avg@k" font-family="system-ui,-apple-system,'Segoe UI',sans-serif" role="img" viewBox="0 0 720 506"><rect width="719" height="505" x=".5" y=".5" fill="#fcfcfb" stroke="rgba(11,11,11,0.08)" rx="12"/><text x="24" y="34" fill="#22211f" font-size="15" font-weight="600">Lite — avg@k by category</text><rect width="11" height="11" x="24" y="48" fill="#2a78d6" rx="3"/><text x="41" y="58" fill="#6b6a67" font-size="12.5">autonomous</text><rect width="11" height="11" x="134" y="48" fill="#008300" rx="3"/><text x="151" y="58" fill="#6b6a67" font-size="12.5">conversation</text><rect width="11" height="11" x="258" y="48" fill="#e87ba4" rx="3"/><text x="275" y="58" fill="#6b6a67" font-size="12.5">context</text><line x1="263" x2="263" y1="70" y2="476" stroke="rgba(11,11,11,0.08)"/><text x="263" y="492" fill="#6b6a67" font-size="10.5" text-anchor="middle">0.25</text><line x1="394" x2="394" y1="70" y2="476" stroke="rgba(11,11,11,0.08)"/><text x="394" y="492" fill="#6b6a67" font-size="10.5" text-anchor="middle">0.5</text><line x1="525" x2="525" y1="70" y2="476" stroke="rgba(11,11,11,0.08)"/><text x="525" y="492" fill="#6b6a67" font-size="10.5" text-anchor="middle">0.75</text><line x1="656" x2="656" y1="70" y2="476" stroke="rgba(11,11,11,0.08)"/><text x="656" y="492" fill="#6b6a67" font-size="10.5" text-anchor="middle">1</text><text x="122" y="113" fill="#22211f" font-size="12.5" text-anchor="end">GPT-5.6 sol</text><rect width="163" height="15" x="132" y="80" fill="#2a78d6" rx="3"/><text x="301" y="91" fill="#6b6a67" font-size="10.5">0.311</text><rect width="206.5" height="15" x="132" y="98" fill="#008300" rx="3"/><text x="344.5" y="109" fill="#6b6a67" font-size="10.5">0.394</text><rect width="524" height="15" x="132" y="116" fill="#e87ba4" rx="3"/><text x="662" y="127" fill="#6b6a67" font-size="10.5">1.000</text><text x="122" y="179" fill="#22211f" font-size="12.5" text-anchor="end">Claude Opus 4.8</text><rect width="139.9" height="15" x="132" y="146" fill="#2a78d6" rx="3"/><text x="277.9" y="157" fill="#6b6a67" font-size="10.5">0.267</text><rect width="79.6" height="15" x="132" y="164" fill="#008300" rx="3"/><text x="217.6" y="175" fill="#6b6a67" font-size="10.5">0.152</text><rect width="471.6" height="15" x="132" y="182" fill="#e87ba4" rx="3"/><text x="609.6" y="193" fill="#6b6a67" font-size="10.5">0.900</text><text x="122" y="245" fill="#22211f" font-size="12.5" text-anchor="end">GPT-5.6 terra</text><rect width="127.9" height="15" x="132" y="212" fill="#2a78d6" rx="3"/><text x="265.9" y="223" fill="#6b6a67" font-size="10.5">0.244</text><rect width="95.4" height="15" x="132" y="230" fill="#008300" rx="3"/><text x="233.4" y="241" fill="#6b6a67" font-size="10.5">0.182</text><rect width="454.3" height="15" x="132" y="248" fill="#e87ba4" rx="3"/><text x="592.3" y="259" fill="#6b6a67" font-size="10.5">0.867</text><text x="122" y="311" fill="#22211f" font-size="12.5" text-anchor="end">GPT-5.6 luna</text><rect width="81.7" height="15" x="132" y="278" fill="#2a78d6" rx="3"/><text x="219.7" y="289" fill="#6b6a67" font-size="10.5">0.156</text><rect width="95.4" height="15" x="132" y="296" fill="#008300" rx="3"/><text x="233.4" y="307" fill="#6b6a67" font-size="10.5">0.182</text><rect width="471.6" height="15" x="132" y="314" fill="#e87ba4" rx="3"/><text x="609.6" y="325" fill="#6b6a67" font-size="10.5">0.900</text><text x="122" y="377" fill="#22211f" font-size="12.5" text-anchor="end">Claude Sonnet 5</text><rect width="46.6" height="15" x="132" y="344" fill="#2a78d6" rx="3"/><text x="184.6" y="355" fill="#6b6a67" font-size="10.5">0.089</text><rect width="0" height="15" x="132" y="362" fill="#008300" rx="3"/><text x="138" y="373" fill="#6b6a67" font-size="10.5">0.000</text><rect width="454.3" height="15" x="132" y="380" fill="#e87ba4" rx="3"/><text x="592.3" y="391" fill="#6b6a67" font-size="10.5">0.867</text><text x="122" y="443" fill="#22211f" font-size="12.5" text-anchor="end">GLM-5.2</text><rect width="11.5" height="15" x="132" y="410" fill="#2a78d6" rx="3"/><text x="149.5" y="421" fill="#6b6a67" font-size="10.5">0.022</text><rect width="0" height="15" x="132" y="428" fill="#008300" rx="3"/><text x="138" y="439" fill="#6b6a67" font-size="10.5">0.000</text><rect width="436.5" height="15" x="132" y="446" fill="#e87ba4" rx="3"/><text x="574.5" y="457" fill="#6b6a67" font-size="10.5">0.833</text></svg>